HIERARCHY
ROOT Hips
{
	OFFSET 0.000000 83.214638 0.000000
	CHANNELS 6 Xposition Yposition Zposition Xrotation Yrotation Zrotation
	JOINT Pelvis
	{
		OFFSET 0.000000 0.000000 0.000000
		CHANNELS 3 Xrotation Yrotation Zrotation
		JOINT LeftUpLeg
		{
			OFFSET 8.479700 -4.795502 -0.379100
			CHANNELS 3 Xrotation Yrotation Zrotation
			JOINT LeftLeg
			{
				OFFSET 0.024144 -32.555107 0.112900
				CHANNELS 3 Xrotation Yrotation Zrotation
				JOINT LeftFoot
				{
					OFFSET -0.024144 -32.638630 -3.012600
					CHANNELS 3 Xrotation Yrotation Zrotation
					JOINT LeftToeBase
					{
						OFFSET 0.970200 -13.225400 11.864200
						CHANNELS 3 Xrotation Yrotation Zrotation
						End Site
						{
							OFFSET 0.000000 12.319262 0.000000
						}
					}
					JOINT LFootTongue
					{
						OFFSET 1.142400 -1.059800 6.665200
						CHANNELS 3 Xrotation Yrotation Zrotation
						End Site
						{
							OFFSET 0.000000 12.319262 0.000000
						}
					}
				}
				JOINT LeftPantLeg
				{
					OFFSET 0.918482 -16.533964 -2.284700
					CHANNELS 3 Xrotation Yrotation Zrotation
					End Site
					{
						OFFSET 0.350399 24.744368 0.000000
					}
				}
			}
		}
		JOINT RightUpLeg
		{
			OFFSET -8.479700 -4.795502 -0.379100
			CHANNELS 3 Xrotation Yrotation Zrotation
			JOINT RightLeg
			{
				OFFSET -0.023144 -32.555092 0.112900
				CHANNELS 3 Xrotation Yrotation Zrotation
				JOINT RightFoot
				{
					OFFSET 0.023144 -32.638641 -3.012700
					CHANNELS 3 Xrotation Yrotation Zrotation
					JOINT RightToeBase
					{
						OFFSET -0.970200 -13.225400 11.864200
						CHANNELS 3 Xrotation Yrotation Zrotation
						End Site
						{
							OFFSET 0.000000 12.319244 0.000000
						}
					}
					JOINT RFootTongue
					{
						OFFSET -1.142200 -1.059800 6.665200
						CHANNELS 3 Xrotation Yrotation Zrotation
						End Site
						{
							OFFSET 0.000000 12.319243 0.000000
						}
					}
				}
				JOINT RightPantLeg
				{
					OFFSET -0.919482 -16.533978 -2.284800
					CHANNELS 3 Xrotation Yrotation Zrotation
					End Site
					{
						OFFSET -0.350400 24.744419 0.000000
					}
				}
			}
		}
	}
	JOINT Spine
	{
		OFFSET 0.000000 7.722000 1.166200
		CHANNELS 3 Xrotation Yrotation Zrotation
		JOINT Spine1
		{
			OFFSET 0.000000 12.024101 0.248800
			CHANNELS 3 Xrotation Yrotation Zrotation
			JOINT Spine2
			{
				OFFSET 0.000000 11.502998 -0.491200
				CHANNELS 3 Xrotation Yrotation Zrotation
				JOINT Neck
				{
					OFFSET 0.000000 18.430702 -3.123100
					CHANNELS 3 Xrotation Yrotation Zrotation
					JOINT Head
					{
						OFFSET 0.000000 9.051102 1.034000
						CHANNELS 3 Xrotation Yrotation Zrotation
						JOINT HairB
						{
							OFFSET 0.208400 24.786102 24.822300
							CHANNELS 3 Xrotation Yrotation Zrotation
							End Site
							{
								OFFSET 0.000000 32.263779 0.000000
							}
						}
						JOINT HairA
						{
							OFFSET -7.081100 24.428299 23.196600
							CHANNELS 3 Xrotation Yrotation Zrotation
							End Site
							{
								OFFSET 0.000000 32.263779 0.000000
							}
						}
						JOINT Hat
						{
							OFFSET 16.728800 15.048294 -15.439601
							CHANNELS 3 Xrotation Yrotation Zrotation
							End Site
							{
								OFFSET 0.000000 32.263779 0.000000
							}
						}
					}
				}
				JOINT LeftShoulder
				{
					OFFSET 6.197800 13.665199 -4.064700
					CHANNELS 3 Xrotation Yrotation Zrotation
					JOINT LeftArm
					{
						OFFSET 7.778100 -0.187103 -1.709300
						CHANNELS 3 Xrotation Yrotation Zrotation
						JOINT LeftForeArm
						{
							OFFSET 22.049376 0.000000 0.000000
							CHANNELS 3 Xrotation Yrotation Zrotation
							JOINT LeftHand
							{
								OFFSET 23.009392 0.000000 0.000000
								CHANNELS 3 Xrotation Yrotation Zrotation
								JOINT LeftHandThumb1
								{
									OFFSET 3.507191 -2.063065 3.133727
									CHANNELS 3 Xrotation Yrotation Zrotation
									JOINT LeftHandThumb2
									{
										OFFSET 3.101337 -1.790558 1.790558
										CHANNELS 3 Xrotation Yrotation Zrotation
										JOINT LeftHandThumb3
										{
											OFFSET 3.058640 -1.765907 1.765906
											CHANNELS 3 Xrotation Yrotation Zrotation
											End Site
											{
												OFFSET -0.415260 3.926476 -0.049563
											}
										}
									}
								}
								JOINT LeftHandIndex1
								{
									OFFSET 11.334419 -0.901459 3.706815
									CHANNELS 3 Xrotation Yrotation Zrotation
									JOINT LeftHandIndex2
									{
										OFFSET 3.283112 0.000000 0.000000
										CHANNELS 3 Xrotation Yrotation Zrotation
										JOINT LeftHandIndex3
										{
											OFFSET 3.323853 0.000000 0.000000
											CHANNELS 3 Xrotation Yrotation Zrotation
											End Site
											{
												OFFSET -1.135597 3.097809 0.402452
											}
										}
									}
								}
								JOINT LeftHandMiddle1
								{
									OFFSET 11.335861 0.000000 0.000000
									CHANNELS 3 Xrotation Yrotation Zrotation
									JOINT LeftHandMiddle2
									{
										OFFSET 3.410492 0.000000 0.000000
										CHANNELS 3 Xrotation Yrotation Zrotation
										JOINT LeftHandMiddle3
										{
											OFFSET 3.312172 0.000000 0.000000
											CHANNELS 3 Xrotation Yrotation Zrotation
											End Site
											{
												OFFSET -1.150200 3.080154 0.400270
											}
										}
									}
								}
								JOINT LeftHandRing1
								{
									OFFSET 11.514786 -0.013176 -3.003090
									CHANNELS 3 Xrotation Yrotation Zrotation
									JOINT LeftHandRing2
									{
										OFFSET 3.053307 0.000000 0.000000
										CHANNELS 3 Xrotation Yrotation Zrotation
										JOINT LeftHandRing3
										{
											OFFSET 3.295807 0.000000 0.000000
											CHANNELS 3 Xrotation Yrotation Zrotation
											End Site
											{
												OFFSET -1.281006 3.013344 0.375733
											}
										}
									}
								}
								JOINT LeftHandPinky1
								{
									OFFSET 10.518692 -0.960396 -5.730441
									CHANNELS 3 Xrotation Yrotation Zrotation
									JOINT LeftHandPinky2
									{
										OFFSET 2.861649 0.000000 0.000000
										CHANNELS 3 Xrotation Yrotation Zrotation
										JOINT LeftHandPinky3
										{
											OFFSET 2.863380 0.000000 0.000000
											CHANNELS 3 Xrotation Yrotation Zrotation
											End Site
											{
												OFFSET -0.843597 2.711159 0.369971
											}
										}
									}
								}
							}
							JOINT LSleeve
							{
								OFFSET 6.676277 -0.344902 -1.011730
								CHANNELS 3 Xrotation Yrotation Zrotation
								End Site
								{
									OFFSET 0.000000 14.885353 0.000000
								}
							}
						}
					}
				}
				JOINT RightShoulder
				{
					OFFSET -6.197800 13.665199 -4.064700
					CHANNELS 3 Xrotation Yrotation Zrotation
					JOINT RightArm
					{
						OFFSET -7.778100 -0.187103 -1.709300
						CHANNELS 3 Xrotation Yrotation Zrotation
						JOINT RightForeArm
						{
							OFFSET -22.049376 0.000000 0.000000
							CHANNELS 3 Xrotation Yrotation Zrotation
							JOINT RightHand
							{
								OFFSET -23.009392 0.000000 0.000000
								CHANNELS 3 Xrotation Yrotation Zrotation
								JOINT RightHandThumb1
								{
									OFFSET -3.507191 -2.063065 3.133727
									CHANNELS 3 Xrotation Yrotation Zrotation
									JOINT RightHandThumb2
									{
										OFFSET -3.101337 -1.790558 1.790558
										CHANNELS 3 Xrotation Yrotation Zrotation
										JOINT RightHandThumb3
										{
											OFFSET -3.058640 -1.765907 1.765906
											CHANNELS 3 Xrotation Yrotation Zrotation
											End Site
											{
												OFFSET 0.415260 3.926476 -0.049563
											}
										}
									}
								}
								JOINT RightHandIndex1
								{
									OFFSET -11.334419 -0.901459 3.706815
									CHANNELS 3 Xrotation Yrotation Zrotation
									JOINT RightHandIndex2
									{
										OFFSET -3.283112 0.000000 0.000000
										CHANNELS 3 Xrotation Yrotation Zrotation
										JOINT RightHandIndex3
										{
											OFFSET -3.323853 0.000000 0.000000
											CHANNELS 3 Xrotation Yrotation Zrotation
											End Site
											{
												OFFSET 1.135597 3.097809 0.402452
											}
										}
									}
								}
								JOINT RightHandMiddle1
								{
									OFFSET -11.335861 0.000000 0.000000
									CHANNELS 3 Xrotation Yrotation Zrotation
									JOINT RightHandMiddle2
									{
										OFFSET -3.410492 0.000000 0.000000
										CHANNELS 3 Xrotation Yrotation Zrotation
										JOINT RightHandMiddle3
										{
											OFFSET -3.312172 0.000000 0.000000
											CHANNELS 3 Xrotation Yrotation Zrotation
											End Site
											{
												OFFSET 1.150200 3.080154 0.400270
											}
										}
									}
								}
								JOINT RightHandRing1
								{
									OFFSET -11.514786 -0.013176 -3.003090
									CHANNELS 3 Xrotation Yrotation Zrotation
									JOINT RightHandRing2
									{
										OFFSET -3.053307 0.000000 0.000000
										CHANNELS 3 Xrotation Yrotation Zrotation
										JOINT RightHandRing3
										{
											OFFSET -3.295807 0.000000 0.000000
											CHANNELS 3 Xrotation Yrotation Zrotation
											End Site
											{
												OFFSET 1.281006 3.013344 0.375733
											}
										}
									}
								}
								JOINT RightHandPinky1
								{
									OFFSET -10.518692 -0.960396 -5.730441
									CHANNELS 3 Xrotation Yrotation Zrotation
									JOINT RightHandPinky2
									{
										OFFSET -2.861649 0.000000 0.000000
										CHANNELS 3 Xrotation Yrotation Zrotation
										JOINT RightHandPinky3
										{
											OFFSET -2.863380 0.000000 0.000000
											CHANNELS 3 Xrotation Yrotation Zrotation
											End Site
											{
												OFFSET 0.843597 2.711159 0.369971
											}
										}
									}
								}
							}
							JOINT RSleeve
							{
								OFFSET -6.676277 -0.344902 -1.011730
								CHANNELS 3 Xrotation Yrotation Zrotation
								End Site
								{
									OFFSET 0.000000 14.885353 0.000000
								}
							}
						}
					}
				}
				JOINT Backpack
				{
					OFFSET 0.000000 -2.471497 36.677502
					CHANNELS 3 Xrotation Yrotation Zrotation
					End Site
					{
						OFFSET 0.000000 20.427315 0.000000
					}
				}
				JOINT Hood
				{
					OFFSET 0.000000 18.754097 -10.431000
					CHANNELS 3 Xrotation Yrotation Zrotation
					JOINT Hood1
					{
						OFFSET 0.000000 -5.011002 -7.685901
						CHANNELS 3 Xrotation Yrotation Zrotation
						End Site
						{
							OFFSET 0.000000 9.175140 0.000000
						}
					}
				}
				JOINT LHoodieString
				{
					OFFSET 5.250500 16.397697 3.089900
					CHANNELS 3 Xrotation Yrotation Zrotation
					JOINT LHoodieString1
					{
						OFFSET 0.257700 -6.364304 3.694600
						CHANNELS 3 Xrotation Yrotation Zrotation
						JOINT LHoodieString2
						{
							OFFSET 0.000000 -9.643799 2.679100
							CHANNELS 3 Xrotation Yrotation Zrotation
							End Site
							{
								OFFSET 0.000000 10.009018 0.000000
							}
						}
					}
				}
				JOINT RHoodieString
				{
					OFFSET -5.250500 16.397697 3.089900
					CHANNELS 3 Xrotation Yrotation Zrotation
					JOINT RHoodieString1
					{
						OFFSET -0.257700 -6.364304 3.694600
						CHANNELS 3 Xrotation Yrotation Zrotation
						JOINT RHoodieString2
						{
							OFFSET 0.000000 -9.643799 2.679100
							CHANNELS 3 Xrotation Yrotation Zrotation
							End Site
							{
								OFFSET 0.000000 10.009018 0.000000
							}
						}
					}
				}
			}
			JOINT LBackpack_Strap
			{
				OFFSET 15.223200 -7.719803 -6.610900
				CHANNELS 3 Xrotation Yrotation Zrotation
				End Site
				{
					OFFSET 0.000000 16.040596 0.000000
				}
			}
			JOINT RBackpack_Strap
			{
				OFFSET -15.223000 -7.719803 -6.610900
				CHANNELS 3 Xrotation Yrotation Zrotation
				End Site
				{
					OFFSET 0.000000 16.040596 0.000000
				}
			}
		}
	}
	JOINT BoyFacialAnim_Joint
	{
		OFFSET 1.000000 -82.208099 -1.550900
		CHANNELS 3 Xrotation Yrotation Zrotation
		End Site
		{
			OFFSET 0.000000 30.012791 0.000000
		}
	}
}
MOTION
Frames: 4
Frame Time: 0.016667
-2.189581 80.884628 2.525816 -6.527206 7.438341 -0.725980 0.000000 -0.000001 -0.000000 -16.549519 15.253908 12.653849 24.315130 0.828658 4.680387 -3.599710 -12.074611 -11.581860 0.000000 0.000001 0.000000 0.000000 0.000001 0.000000 -0.000000 -0.000002 -0.000000 0.792800 -10.058773 5.462661 19.419138 -9.735676 -6.909709 -12.977651 -16.005835 4.318013 0.000000 0.000000 -0.000000 0.000000 0.000000 -0.000000 -0.000002 0.000002 -0.000000 2.719454 1.592887 2.727557 2.229757 0.462798 2.709335 1.815967 0.462782 2.663381 12.069587 -2.397796 -0.979291 1.367183 -8.878460 -6.544920 -0.000000 -0.000000 -0.000000 -0.000000 -0.000000 -0.000000 -0.000000 -0.000000 -0.000000 0.980235 -16.729751 -12.817466 1.380167 -1.285204 -71.138701 0.000001 -0.000004 -0.000003 -34.595533 -2.769058 -5.684773 -0.945033 2.085474 4.986310 11.826401 25.404989 17.117649 0.000000 0.000002 -0.000001 0.084270 -0.924056 -8.185777 0.267787 1.752621 -17.372876 -0.000001 -0.000001 -0.000002 -0.073343 2.742585 -16.488387 0.269697 1.758717 -17.435320 0.000001 0.000001 0.000000 0.084985 3.528579 -21.560626 0.386261 2.093848 -20.902011 0.000001 0.000001 -0.000004 0.961168 5.610177 -27.583155 0.269776 1.758971 -17.437943 0.000002 0.000002 -0.000002 0.000000 0.000000 0.000000 0.966137 8.437342 16.887347 28.204747 8.686312 58.059743 -0.000002 3.688156 -0.000012 -18.173163 -1.917481 9.747778 -22.530622 4.903188 4.908376 9.518509 -27.760657 -21.071067 0.000002 0.000001 0.000000 1.062308 -0.350879 19.899445 1.041859 -2.937736 39.046972 -0.000001 0.000002 0.000002 0.380991 -4.016465 23.477874 1.260459 -3.188030 43.136534 -0.000000 -0.000000 0.000003 -0.717284 -1.494736 23.600426 0.643365 -2.363851 30.447105 -0.000000 -0.000001 0.000000 1.085912 -5.686126 22.733436 0.336825 -1.740585 21.902853 -0.000000 -0.000001 0.000002 -0.000001 -0.000000 -0.000001 0.000000 0.000001 0.000000 0.000000 0.000001 0.000000 0.000000 0.000001 0.000000 0.000000 0.000001 0.000000 0.000000 0.000001 0.000000 0.000000 0.000001 0.000000 0.000000 0.000001 0.000000 0.000000 0.000001 0.000000 0.000000 0.000001 0.000000 -0.000000 -0.000001 0.000000 -0.000000 -0.000001 0.000000 0.000000 -0.000001 -0.000000 
-2.138339 80.935242 2.507237 -6.289603 6.902693 -0.802114 0.000000 0.000000 0.000000 -16.503701 15.286657 12.619639 24.060313 0.675943 4.604545 -3.510127 -11.408760 -11.508153 -0.000000 0.000000 -0.000000 -0.000000 0.000000 0.000000 -0.000000 -0.000002 -0.000001 0.590092 -10.065127 5.312417 19.189577 -9.746583 -6.833349 -12.794429 -15.408615 4.347297 0.000000 0.000000 0.000000 0.000000 0.000000 0.000000 -0.000000 -0.000001 0.000001 2.695269 1.567806 2.709231 2.274832 0.425906 2.707982 1.839811 0.425762 2.655625 11.829168 -2.244497 -0.934815 1.105651 -8.174213 -6.247968 -0.000000 0.000000 0.000000 -0.000000 0.000000 0.000000 -0.000000 0.000000 0.000000 0.974911 -16.800881 -12.868812 1.435869 -0.692811 -71.334311 -0.000001 -0.000001 0.000012 -33.995583 -2.404734 -5.539998 -0.740814 2.177760 4.903572 11.791470 25.381026 17.236259 0.000000 -0.000000 -0.000001 0.101975 -0.894336 -8.243476 0.267741 1.752490 -17.371582 -0.000000 -0.000001 -0.000004 -0.055502 2.807224 -16.539185 0.269559 1.758284 -17.430923 0.000004 0.000002 -0.000001 0.092932 3.552175 -21.630326 0.386228 2.093771 -20.901253 -0.000000 0.000001 -0.000000 0.984306 5.638664 -27.641091 0.269937 1.759480 -17.443104 -0.000000 0.000001 -0.000000 0.000001 0.000000 0.000000 0.974205 8.465968 16.811910 28.086918 7.872540 58.190418 -0.000010 3.162841 0.000023 -16.303849 -3.021912 9.938314 -22.319994 4.616047 2.964464 9.813070 -27.713935 -20.187884 -0.000001 0.000004 0.000004 1.148886 -0.266912 17.459135 0.984712 -2.865940 37.918229 0.000001 0.000001 0.000004 0.390232 -4.036148 21.065227 1.179149 -3.099110 41.653878 -0.000000 0.000001 -0.000000 -0.617053 -1.495120 21.700904 0.595691 -2.280880 29.270509 -0.000002 0.000000 0.000000 1.015404 -5.750877 19.977489 0.318385 -1.694010 21.287430 -0.000001 -0.000002 -0.000000 -0.000001 -0.000001 -0.000000 0.000000 0.000001 0.000000 0.000000 0.000001 0.000000 0.000000 0.000001 0.000000 0.000000 0.000001 0.000000 0.000000 0.000001 0.000000 0.000000 -0.000000 0.000000 0.000000 0.000001 0.000000 0.000000 0.000001 0.000000 0.000000 -0.000000 0.000000 -0.000000 0.000000 -0.000000 -0.000000 0.000000 -0.000000 0.000000 0.000000 0.000000 
-2.091401 80.983673 2.480700 -6.052183 6.324395 -0.894832 -0.000000 -0.000000 0.000000 -16.469449 15.315881 12.602043 23.822779 0.508465 4.540117 -3.429006 -10.691741 -11.429353 -0.000000 0.000002 -0.000000 -0.000000 0.000002 -0.000000 0.000000 -0.000001 -0.000001 0.372690 -10.067643 5.172070 18.970005 -9.759464 -6.742593 -12.609752 -14.773853 4.365293 -0.000000 0.000000 0.000000 -0.000000 0.000000 0.000000 0.000001 0.000000 -0.000000 2.675018 1.551675 2.695425 2.323626 0.402819 2.709165 1.868223 0.402405 2.651738 11.576147 -2.092928 -0.883112 0.830122 -7.486984 -5.921343 -0.000001 0.000000 -0.000000 -0.000001 0.000000 -0.000000 -0.000001 0.000000 -0.000000 0.973020 -16.881875 -12.893317 1.489842 -0.193285 -71.539101 -0.000001 -0.000000 0.000002 -33.441416 -2.085280 -5.380679 -0.610936 2.223757 4.844116 11.771035 25.366855 17.305773 0.000002 -0.000001 0.000001 0.109640 -0.882560 -8.256107 0.267709 1.752376 -17.370361 -0.000004 -0.000000 -0.000002 -0.045311 2.842771 -16.552352 0.269396 1.757780 -17.425703 0.000002 0.000002 0.000002 0.096610 3.562965 -21.660792 0.386216 2.093754 -20.900992 -0.000002 -0.000000 -0.000001 0.994183 5.653264 -27.663456 0.269988 1.759667 -17.445022 0.000002 0.000002 -0.000005 -0.000000 0.000000 0.000001 0.974404 8.574766 16.795623 27.644521 6.868326 58.342124 -0.000006 2.537488 -0.000010 -14.582065 -4.211700 10.110769 -21.901212 4.412096 1.458870 9.977242 -27.585623 -19.715640 -0.000003 0.000001 0.000000 1.225525 -0.253459 15.752067 0.931944 -2.796954 36.850039 0.000001 -0.000001 0.000005 0.391769 -4.052738 19.475839 1.103367 -3.011862 40.232075 -0.000001 0.000000 0.000002 -0.553185 -1.507921 20.499324 0.554125 -2.205153 28.208603 -0.000002 -0.000000 0.000000 0.940685 -5.715203 18.308460 0.302341 -1.652263 20.737762 0.000001 -0.000001 0.000000 -0.000001 0.000001 -0.000000 0.000000 -0.000000 -0.000000 0.000000 -0.000000 -0.000000 0.000000 -0.000000 -0.000000 0.000000 -0.000000 -0.000000 0.000000 -0.000000 -0.000000 -0.000000 -0.000000 -0.000000 0.000000 -0.000000 -0.000000 0.000000 -0.000000 -0.000000 -0.000000 -0.000000 -0.000000 0.000000 -0.000001 -0.000000 0.000000 -0.000001 -0.000000 -0.000000 -0.000000 0.000000 
-2.049266 81.028679 2.447243 -5.818061 5.715023 -1.004733 -0.000000 0.000000 0.000000 -16.452292 15.342575 12.605321 23.612109 0.332092 4.488423 -3.363549 -9.943551 -11.346702 0.000000 -0.000001 0.000000 0.000000 -0.000001 0.000000 -0.000000 0.000001 -0.000001 0.144412 -10.064717 5.047083 18.764300 -9.774621 -6.637869 -12.427241 -14.114969 4.370844 0.000000 -0.000000 -0.000000 0.000000 -0.000000 -0.000000 -0.000001 0.000000 0.000000 2.658158 1.541544 2.687150 2.374961 0.388697 2.715268 1.900021 0.387847 2.652638 11.317117 -1.943498 -0.825332 0.529278 -6.811789 -5.583147 0.000000 0.000000 0.000000 0.000000 0.000000 0.000000 0.000000 0.000000 0.000000 0.974776 -16.968722 -12.889545 1.560688 0.185208 -71.747784 0.000001 -0.000001 -0.000000 -32.970604 -1.827789 -5.223734 -0.552300 2.228801 4.808838 11.764105 25.361976 17.329351 0.000000 0.000001 -0.000001 0.108345 -0.885828 -8.232174 0.267670 1.752260 -17.369222 -0.000001 -0.000000 -0.000000 -0.041765 2.853407 -16.534402 0.269273 1.757368 -17.421562 0.000001 -0.000001 -0.000000 0.096946 3.563568 -21.656011 0.386229 2.093789 -20.901369 0.000002 0.000001 -0.000004 0.994159 5.654189 -27.655649 0.269983 1.759628 -17.444616 -0.000000 0.000000 -0.000000 -0.000001 -0.000000 0.000001 0.968010 8.730538 16.828625 26.972489 5.818282 58.456106 0.000002 1.888799 -0.000004 -13.025002 -5.397806 10.195378 -21.244164 4.286137 0.432287 10.018533 -27.381878 -19.635744 -0.000000 0.000003 -0.000001 1.298123 -0.326192 14.800250 0.883092 -2.730637 35.836906 -0.000002 0.000000 0.000005 0.397412 -4.079450 18.748823 1.034161 -2.928216 38.896490 -0.000000 -0.000002 0.000005 -0.516331 -1.548216 20.026350 0.518664 -2.137749 27.272457 0.000000 -0.000006 0.000001 0.884381 -5.600503 17.801952 0.288134 -1.614263 20.239350 -0.000001 0.000001 0.000000 0.000002 -0.000001 -0.000001 0.000000 0.000001 -0.000001 0.000000 0.000001 -0.000001 0.000000 0.000001 -0.000001 0.000000 0.000001 -0.000001 0.000000 0.000001 -0.000001 -0.000000 0.000001 0.000000 0.000000 0.000001 -0.000001 0.000000 0.000001 -0.000001 -0.000000 0.000001 0.000000 -0.000000 0.000000 -0.000000 -0.000000 0.000000 -0.000000 -0.000000 0.000000 0.000000 
